<svg width="255" height="256" viewBox="0 0 255 256" fill="none" xmlns="http://www.w3.org/2000/svg">
<path d="M0 124.953C0 42.6761 65.9957 0 127.5 0C189.004 0 255 42.6761 255 124.953C255 207.229 189.004 256 127.5 256C65.9957 256 0 207.24 0 124.953Z" fill="#CC1818"/>
<path d="M74 60H143.117C163.914 60 187.749 74.8549 187.749 106.871C187.749 128.839 176.482 142.86 162.613 149.551L191 196H149.833L124.271 153.947H109.752V196H74V60ZM137.041 120.47C144.406 120.47 151.985 116.28 151.985 106.871C151.985 97.462 144.406 93.4776 137.041 93.4776H109.741V120.47H137.041Z" fill="white"/>
</svg>
