<svg width="108" height="56" viewBox="0 0 108 56" fill="none" xmlns="http://www.w3.org/2000/svg">
<path d="M0.754913 0.229942H12.8009C16.4258 0.229942 20.58 2.91117 20.58 8.68797C20.58 12.6534 18.6168 15.1828 16.2002 16.3911L21.1462 24.7732H13.9723L9.51664 17.1829H6.98726V24.7732H0.754913V0.229942ZM11.7445 11.1436C13.0287 11.1436 14.3498 10.3887 14.3498 8.68797C14.3498 6.98725 13.0287 6.27139 11.7445 6.27139H6.98726V11.1436H11.7445Z" fill="#08232D"/>
<path d="M22.3176 16.0896C22.3176 10.803 25.7906 7.14127 30.3981 7.14127C32.0967 7.14127 33.4199 7.63153 34.4005 8.50141V7.40593H40.4419V24.7754H34.4005V23.7189C33.4178 24.5498 32.0967 25.0791 30.3981 25.0791C25.7906 25.0791 22.3176 21.2655 22.3176 16.0917V16.0896ZM34.4005 16.0896C34.4005 14.2023 33.1922 12.8053 31.3049 12.8053C29.4176 12.8053 28.1703 14.2023 28.1703 16.0896C28.1703 17.9768 29.4155 19.4129 31.3049 19.4129C33.1943 19.4129 34.4005 17.979 34.4005 16.0896Z" fill="#08232D"/>
<path d="M44.2186 7.40375H50.2601V10.5384C51.8089 8.12178 54.1496 7.17814 56.3775 7.1391V12.8031C55.3579 12.8031 50.2601 12.3128 50.2601 17.7491V24.7732H44.2186V7.40375Z" fill="#08232D"/>
<path d="M57.8894 16.0896C57.8894 10.803 61.3625 7.14127 65.97 7.14127C67.6686 7.14127 68.9918 7.63153 69.9723 8.50141V7.40593H76.0138V24.7754H69.9723V23.7189C68.9897 24.5498 67.6686 25.0791 65.97 25.0791C61.3625 25.0791 57.8894 21.2655 57.8894 16.0917V16.0896ZM69.9723 16.0896C69.9723 14.2023 68.764 12.8053 66.8768 12.8053C64.9895 12.8053 63.7422 14.2023 63.7422 16.0896C63.7422 17.9768 64.9873 19.4129 66.8768 19.4129C68.7662 19.4129 69.9723 17.979 69.9723 16.0896Z" fill="#08232D"/>
<path d="M0 49.8479L4.98501 46.223C5.55119 47.0539 8.4602 49.772 11.6317 49.772C13.7467 49.772 13.9723 49.0171 13.9723 48.3359C13.9723 47.0908 10.7249 46.4855 9.10014 45.8434C7.47535 45.2013 1.05644 43.8412 1.05644 38.2531C1.05644 32.665 6.07833 30.55 10.9115 30.55C15.7446 30.55 19.8229 33.4959 20.8056 36.0643L15.9334 39.3486C15.2913 38.5178 12.9506 36.7802 10.1175 36.7802C8.83331 36.7802 8.23025 37.2335 8.23025 37.9125C8.23025 39.3095 11.3258 39.8757 12.9506 40.5178C14.5754 41.1599 20.9574 42.8585 20.9574 48.0322C20.9574 53.206 16.8033 56 10.9137 56C5.02406 56 1.20829 52.6441 0 49.8479Z" fill="#08232D"/>
<path d="M24.9988 49.9629V42.7132H22.8469V38.1815H24.9988V32.8191H31.0402V38.1815H34.4395V42.7132H31.0402V48.9433C31.0402 51.1343 32.3613 50.9065 33.305 50.9065H34.2486V55.551H30.6997C26.6973 55.551 24.9966 53.5118 24.9966 49.9629" fill="#08232D"/>
<path d="M37.4591 48.7915V38.1794H43.5006V47.8088C43.5006 50.6788 45.5397 50.7916 46.069 50.7916C46.5983 50.7916 48.5246 50.6788 48.5246 47.8088V38.1794H54.5661V55.551H48.5246V54.3427C47.2404 55.475 45.5788 55.8525 44.1449 55.8525C41.238 55.8525 37.4613 54.3795 37.4613 48.7915" fill="#08232D"/>
<path d="M57.5858 46.8652C57.5858 41.5786 61.0588 37.9147 65.6663 37.9147C67.3649 37.9147 68.6881 38.405 69.6687 39.2748V31.0055H75.7101V55.551H69.6687V54.4945C68.686 55.3254 67.3649 55.8547 65.6663 55.8547C61.0588 55.8547 57.5858 52.0411 57.5858 46.8673M69.6708 46.8652C69.6708 44.9779 68.4625 43.5809 66.5753 43.5809C64.688 43.5809 63.4406 44.9779 63.4406 46.8652C63.4406 48.7524 64.6858 50.1885 66.5753 50.1885C68.4647 50.1885 69.6708 48.7524 69.6708 46.8652Z" fill="#08232D"/>
<path d="M79.4868 33.1206C79.4868 31.0815 81.1485 30.025 82.6974 30.025C84.2462 30.025 85.9079 31.0815 85.9079 33.1206C85.9079 35.1597 84.2462 36.368 82.6974 36.368C81.1485 36.368 79.4868 35.1597 79.4868 33.1206Z" fill="#CC1818"/>
<path d="M79.6755 38.1794H85.756L85.7192 55.551H79.6755V38.1794Z" fill="#08232D"/>
<path d="M88.9275 46.8652C88.9275 41.5786 92.7042 37.8019 97.9908 37.8019C103.277 37.8019 107.015 41.5786 107.015 46.8652C107.015 52.1517 103.277 55.9284 97.9908 55.9284C92.7042 55.9284 88.9275 52.0389 88.9275 46.8652ZM101.086 46.8652C101.086 44.9779 99.8781 43.5809 97.9908 43.5809C96.1035 43.5809 94.8562 44.9779 94.8562 46.8652C94.8562 48.7524 96.1013 50.1885 97.9908 50.1885C99.8802 50.1885 101.086 48.7524 101.086 46.8652Z" fill="#08232D"/>
<path d="M81.7624 0C79.9597 0 78.4933 1.46643 78.4933 3.27128C78.4933 5.07612 79.9597 6.54038 81.7624 6.54038C83.5651 6.54038 85.0337 5.07395 85.0337 3.27128C85.0337 1.4686 83.5672 0 81.7624 0ZM81.7624 5.64013C80.4565 5.64013 79.3914 4.57718 79.3914 3.26911C79.3914 1.96103 80.4543 0.898082 81.7624 0.898082C83.0705 0.898082 84.1334 1.96103 84.1334 3.26911C84.1334 4.57718 83.0705 5.64013 81.7624 5.64013ZM82.9512 2.84393C82.9512 2.18447 82.4869 1.77447 81.7429 1.77447H80.6387V4.76591H81.2721V3.93291H81.7429C81.7711 3.93291 81.7993 3.93291 81.8296 3.93074L82.4392 4.76591H83.2245L82.4804 3.74852C82.7841 3.55979 82.9512 3.23874 82.9512 2.8461M81.7407 3.29948H81.27V2.4079H81.7407C82.3156 2.4079 82.3156 2.73763 82.3156 2.84393C82.3156 2.95022 82.3156 3.29731 81.7407 3.29731" fill="#08232D"/>
</svg>
