<svg width="186" height="97" viewBox="0 0 186 97" fill="none" xmlns="http://www.w3.org/2000/svg">
<path d="M1.30762 0.398438H22.173C28.4518 0.398438 35.6475 5.04271 35.6475 15.049C35.6475 21.9177 32.2469 26.2989 28.0611 28.3919L36.6282 42.9109H24.2021L16.4842 29.7633H12.1029V42.9109H1.30762V0.398438ZM20.3431 19.3024C22.5676 19.3024 24.8559 17.9948 24.8559 15.049C24.8559 12.1031 22.5676 10.8631 20.3431 10.8631H12.1029V19.3024H20.3431Z" fill="white"/>
<path d="M38.6573 27.8693C38.6573 18.7123 44.6731 12.3696 52.6541 12.3696C55.5962 12.3696 57.8883 13.2188 59.5867 14.7256V12.828H70.0513V42.9144H59.5867V41.0845C57.8845 42.5236 55.5962 43.4404 52.6541 43.4404C44.6731 43.4404 38.6573 36.8347 38.6573 27.8731V27.8693ZM59.5867 27.8693C59.5867 24.6003 57.4937 22.1805 54.2247 22.1805C50.9557 22.1805 48.7951 24.6003 48.7951 27.8693C48.7951 31.1384 50.9519 33.6258 54.2247 33.6258C57.4975 33.6258 59.5867 31.1421 59.5867 27.8693Z" fill="white"/>
<path d="M76.593 12.8246H87.0577V18.2542C89.7405 14.0684 93.7949 12.4338 97.6538 12.3662V22.1771C95.8878 22.1771 87.0577 21.3279 87.0577 30.7442V42.911H76.593V12.8246Z" fill="white"/>
<path d="M100.273 27.8693C100.273 18.7123 106.288 12.3696 114.269 12.3696C117.212 12.3696 119.504 13.2188 121.202 14.7256V12.828H131.667V42.9144H121.202V41.0845C119.5 42.5236 117.212 43.4404 114.269 43.4404C106.288 43.4404 100.273 36.8347 100.273 27.8731V27.8693ZM121.202 27.8693C121.202 24.6003 119.109 22.1805 115.84 22.1805C112.571 22.1805 110.41 24.6003 110.41 27.8693C110.41 31.1384 112.567 33.6258 115.84 33.6258C119.113 33.6258 121.202 31.1421 121.202 27.8693Z" fill="white"/>
<path d="M0 86.3433L8.63475 80.0645C9.61546 81.5036 14.6543 86.2118 20.1477 86.2118C23.8113 86.2118 24.2021 84.9042 24.2021 83.7243C24.2021 81.5675 18.5771 80.5191 15.7627 79.4069C12.9484 78.2947 1.82991 75.9387 1.82991 66.2594C1.82991 56.5801 10.5285 52.9165 18.9003 52.9165C27.272 52.9165 34.3361 58.0192 36.0382 62.4681L27.5989 68.1569C26.4867 66.7178 22.4323 63.7081 17.525 63.7081C15.3006 63.7081 14.256 64.4934 14.256 65.6695C14.256 68.0893 19.6179 69.07 22.4323 70.1822C25.2467 71.2945 36.3013 74.2366 36.3013 83.1982C36.3013 92.1599 29.1056 96.9996 18.904 96.9996C8.70238 96.9996 2.09293 91.1867 0 86.3433Z" fill="white"/>
<path d="M43.3015 86.5427V73.9852H39.5741V66.1357H43.3015V56.8472H53.7662V66.1357H59.6542V73.9852H53.7662V84.7767C53.7662 88.5718 56.0545 88.1773 57.689 88.1773H59.3236V96.2221H53.1763C46.2437 96.2221 43.2978 92.69 43.2978 86.5427" fill="white"/>
<path d="M64.8845 84.5136V66.1318H75.3492V82.8114C75.3492 87.7826 78.8812 87.978 79.7981 87.978C80.7149 87.978 84.0516 87.7826 84.0516 82.8114V66.1318H94.5162V96.2219H84.0516V94.129C81.8271 96.0904 78.9489 96.7442 76.4652 96.7442C71.4301 96.7442 64.8883 94.1929 64.8883 84.5136" fill="white"/>
<path d="M99.7467 81.1767C99.7467 72.0196 105.762 65.6732 113.743 65.6732C116.686 65.6732 118.978 66.5224 120.676 68.0292V53.7056H131.141V96.2217H120.676V94.3918C118.974 95.831 116.686 96.7478 113.743 96.7478C105.762 96.7478 99.7467 90.1421 99.7467 81.1805M120.68 81.1767C120.68 77.9077 118.587 75.4878 115.318 75.4878C112.049 75.4878 109.888 77.9077 109.888 81.1767C109.888 84.4457 112.045 86.9332 115.318 86.9332C118.591 86.9332 120.68 84.4457 120.68 81.1767Z" fill="white"/>
<path d="M137.682 57.3693C137.682 53.8372 140.561 52.0073 143.244 52.0073C145.926 52.0073 148.805 53.8372 148.805 57.3693C148.805 60.9013 145.926 62.9943 143.244 62.9943C140.561 62.9943 137.682 60.9013 137.682 57.3693Z" fill="#CC1818"/>
<path d="M138.009 66.1318H148.542L148.478 96.2219H138.009V66.1318Z" fill="white"/>
<path d="M154.035 81.1769C154.035 72.0198 160.577 65.478 169.734 65.478C178.891 65.478 185.365 72.0198 185.365 81.1769C185.365 90.3339 178.891 96.8757 169.734 96.8757C160.577 96.8757 154.035 90.1385 154.035 81.1769ZM175.096 81.1769C175.096 77.9079 173.003 75.488 169.734 75.488C166.465 75.488 164.304 77.9079 164.304 81.1769C164.304 84.4459 166.461 86.9334 169.734 86.9334C173.007 86.9334 175.096 84.4459 175.096 81.1769Z" fill="white"/>
<path d="M141.624 0C138.502 0 135.962 2.54007 135.962 5.66632C135.962 8.79256 138.502 11.3289 141.624 11.3289C144.747 11.3289 147.29 8.78881 147.29 5.66632C147.29 2.54383 144.75 0 141.624 0ZM141.624 9.76951C139.362 9.76951 137.517 7.92834 137.517 5.66256C137.517 3.39678 139.358 1.55561 141.624 1.55561C143.89 1.55561 145.731 3.39678 145.731 5.66256C145.731 7.92834 143.89 9.76951 141.624 9.76951ZM143.683 4.92609C143.683 3.78381 142.879 3.07364 141.59 3.07364H139.678V8.25524H140.775V6.81236H141.59C141.639 6.81236 141.688 6.81236 141.741 6.8086L142.797 8.25524H144.157L142.868 6.49297C143.394 6.16607 143.683 5.60996 143.683 4.92985M141.587 5.71517H140.771V4.17083H141.587C142.582 4.17083 142.582 4.74197 142.582 4.92609C142.582 5.11021 142.582 5.71141 141.587 5.71141" fill="white"/>
</svg>
