<svg width="48" height="47" viewBox="0 0 48 47" fill="none" xmlns="http://www.w3.org/2000/svg">
<path d="M0 22.9405C0 7.83506 12.4227 0 24 0C35.5773 0 48 7.83506 48 22.9405C48 38.0459 35.5773 47 24 47C12.4227 47 0 38.048 0 22.9405Z" fill="#CC1818"/>
<path d="M14 11H26.9964C30.9069 11 35.3887 13.7307 35.3887 19.616C35.3887 23.6542 33.27 26.2317 30.6623 27.4617L36 36H28.2591L23.4527 28.2697H20.7227V36H14V11ZM25.8538 22.1158C27.2388 22.1158 28.6639 21.3455 28.6639 19.616C28.6639 17.8864 27.2388 17.154 25.8538 17.154H20.7206V22.1158H25.8538Z" fill="white"/>
</svg>
