<svg width="78" height="77" viewBox="0 0 78 77" fill="none" xmlns="http://www.w3.org/2000/svg">
<g clip-path="url(#clip0_3_3)">
<path d="M0 37.5817C0 12.8356 20.1869 0 39 0C57.8131 0 78 12.8356 78 37.5817C78 62.3279 57.8131 76.9966 39 76.9966C20.1869 76.9966 0 62.3312 0 37.5817Z" fill="#CC1818"/>
<path d="M72.9965 0C70.2387 0 67.993 2.24318 67.993 4.99802C67.993 7.75286 70.2387 9.99604 72.9965 9.99604C75.7544 9.99604 78 7.75286 78 4.99802C78 2.24318 75.7544 0 72.9965 0ZM72.9965 8.6237C70.9951 8.6237 69.3703 6.99723 69.3703 5.00141C69.3703 3.00559 70.9985 1.37911 72.9965 1.37911C74.9945 1.37911 76.6228 3.00559 76.6228 5.00141C76.6228 6.99723 74.9945 8.6237 72.9965 8.6237ZM74.8147 4.34743C74.8147 3.33766 74.1058 2.71079 72.966 2.71079H71.2767V7.28186H72.2468V6.00779H72.9694C73.0135 6.00779 73.0576 6.00779 73.1017 6.0044L74.0345 7.28186H75.2354L74.099 5.72654C74.5637 5.43852 74.8181 4.94719 74.8181 4.34743M72.9626 5.04207H72.2401V3.6799H72.9626C73.8446 3.6799 73.8446 4.18139 73.8446 4.34743C73.8446 4.51347 73.8446 5.04207 72.9626 5.04207Z" fill="white"/>
<path d="M23.4672 17.2168H44.38C50.6725 17.2168 57.8843 21.8658 57.8843 31.8856C57.8843 38.7608 54.4752 43.1489 50.279 45.243L58.868 59.7796H46.4119L38.6777 46.6187H34.2849V59.7796H23.4672V17.2168ZM42.5414 36.1415C44.7701 36.1415 47.0632 34.8302 47.0632 31.8856C47.0632 28.941 44.7701 27.694 42.5414 27.694H34.2815V36.1415H42.5414Z" fill="white"/>
</g>
<defs>
<clipPath id="clip0_3_3">
<rect width="78" height="77" fill="white"/>
</clipPath>
</defs>
</svg>
