<svg width="60" height="60" viewBox="0 0 60 60" fill="none" xmlns="http://www.w3.org/2000/svg">
<g clip-path="url(#clip0_5_905)">
<mask id="mask0_5_905" style="mask-type:luminance" maskUnits="userSpaceOnUse" x="-5" y="-5" width="70" height="70">
<path d="M-4.28564 -4.28578H64.2858V64.2856H-4.28564V-4.28578Z" fill="white"/>
</mask>
<g mask="url(#mask0_5_905)">
<path d="M54.6429 48.2143H37.6864C42.0579 45.5904 45 40.8172 45 35.3572C45 29.8972 42.0579 25.124 37.6864 22.5H57.8571V44.8779C57.8571 46.7175 56.415 48.2143 54.6429 48.2143ZM30 22.5C37.0896 22.5 42.8571 28.2675 42.8571 35.3572C42.8571 42.4468 37.0896 48.2143 30 48.2143C22.9104 48.2143 17.1429 42.4468 17.1429 35.3572C17.1429 28.2675 22.9104 22.5 30 22.5ZM5.35714 48.2143C3.585 48.2143 2.14286 46.7175 2.14286 44.8779V27.8572H9.64286C10.2343 27.8572 10.7143 27.3772 10.7143 26.7857C10.7143 26.1943 10.2343 25.7143 9.64286 25.7143H2.14286V22.5H22.3136C17.9421 25.124 15 29.8972 15 35.3572C15 40.8172 17.9421 45.5904 22.3136 48.2143H5.35714ZM5.35714 15.0922H24.0043C24.3536 15.0922 24.6825 14.9218 24.8829 14.6347L26.8757 11.7857H54.6429C56.415 11.7857 57.8571 13.2825 57.8571 15.1222V20.3572H2.14286V18.4286C2.14286 16.589 3.585 15.0922 5.35714 15.0922ZM5.35714 11.7857H10.7143V12.8572H5.35714V11.7857ZM17.1429 11.7857H20.3571V12.8572H17.1429V11.7857ZM54.6429 9.64289H26.3186C25.9693 9.64289 25.6414 9.81324 25.4411 10.1004L23.4471 12.9493H22.5V10.7143C22.5 10.1229 22.02 9.64289 21.4286 9.64289H16.0714C15.48 9.64289 15 10.1229 15 10.7143V12.9493H12.8571V10.7143C12.8571 10.1229 12.3771 9.64289 11.7857 9.64289H4.28571C3.69429 9.64289 3.21429 10.1229 3.21429 10.7143V13.4143C1.32536 14.2618 0 16.1872 0 18.4286V44.8779C0 47.8993 2.40321 50.3572 5.35714 50.3572H54.6429C57.5968 50.3572 60 47.8993 60 44.8779V15.1222C60 12.1007 57.5968 9.64289 54.6429 9.64289Z" fill="#CC1818"/>
<path d="M29.9999 28.9287C33.5453 28.9287 36.4285 31.8119 36.4285 35.3573C36.4285 38.9026 33.5453 41.7859 29.9999 41.7859C26.4545 41.7859 23.5713 38.9026 23.5713 35.3573C23.5713 31.8119 26.4545 28.9287 29.9999 28.9287ZM29.9999 43.9287C34.726 43.9287 38.5713 40.0834 38.5713 35.3573C38.5713 30.6312 34.726 26.7859 29.9999 26.7859C25.2738 26.7859 21.4285 30.6312 21.4285 35.3573C21.4285 40.0834 25.2738 43.9287 29.9999 43.9287Z" fill="#CC1818"/>
<path d="M55.2184 24.643H49.782C49.5077 24.643 49.2859 24.8648 49.2859 25.1391V28.4326C49.2859 28.7069 49.5077 28.9287 49.782 28.9287H55.2184C55.4927 28.9287 55.7145 28.7069 55.7145 28.4326V25.1391C55.7145 24.8648 55.4927 24.643 55.2184 24.643Z" fill="#CC1818"/>
</g>
</g>
<defs>
<clipPath id="clip0_5_905">
<rect width="60" height="60" fill="white"/>
</clipPath>
</defs>
</svg>
