<svg width="59" height="48" viewBox="0 0 59 48" fill="none" xmlns="http://www.w3.org/2000/svg">
<path d="M10.25 26.75H18.5M2 15.75L7.5 18.5L10.9943 8.01719C11.7155 5.85344 12.0761 4.77156 12.745 3.97169C13.3357 3.26536 14.0943 2.71863 14.9512 2.38165C15.9215 2 17.0619 2 19.3427 2H39.6574C41.9382 2 43.0784 2 44.0489 2.38165C44.9058 2.71863 45.6642 3.26536 46.2549 3.97169C46.9237 4.77156 47.2845 5.85344 48.0059 8.01719L51.5 18.5L57 15.75M40.5 26.75H48.75M15.2 18.5H43.8C48.4206 18.5 50.7305 18.5 52.4955 19.3992C54.0479 20.1901 55.3099 21.4521 56.1008 23.0045C57 24.7694 57 27.0795 57 31.7V39.125C57 40.4029 57 41.0417 56.8944 41.573C56.4604 43.7549 54.7549 45.4604 52.573 45.8944C52.0417 46 51.4029 46 50.125 46H48.75C45.7124 46 43.25 43.5376 43.25 40.5C43.25 39.7407 42.6343 39.125 41.875 39.125H17.125C16.3656 39.125 15.75 39.7407 15.75 40.5C15.75 43.5376 13.2876 46 10.25 46H8.875C7.59719 46 6.9583 46 6.427 45.8944C4.24521 45.4604 2.53966 43.7549 2.10568 41.573C2 41.0417 2 40.4029 2 39.125V31.7C2 27.0795 2 24.7694 2.8992 23.0045C3.69015 21.4521 4.95224 20.1901 6.50458 19.3992C8.26934 18.5 10.5796 18.5 15.2 18.5Z" stroke="#A61B3B" stroke-width="3" stroke-linecap="round" stroke-linejoin="round"/>
</svg>
