<svg width="61" height="55" viewBox="0 0 61 55" fill="none" xmlns="http://www.w3.org/2000/svg">
<path d="M53.5001 47.3557L45.6615 37.7558C49.3327 31.728 50.2257 24.4103 48.0924 17.5638C47.894 16.9189 47.1994 16.5716 46.5545 16.77C45.9095 16.9685 45.5374 17.6631 45.7607 18.308C47.77 24.7079 46.8273 31.5543 43.1561 37.1357L43.0817 37.2349C42.8336 37.6814 42.8584 38.2271 43.1809 38.624L51.5901 48.8936C51.5901 48.8936 51.7141 49.0425 51.7389 49.0425C52.4335 49.8363 52.4335 50.9525 51.7637 51.7711C51.7389 51.7959 51.7389 51.8207 51.7141 51.8207L51.5404 51.9944C50.7467 52.6641 49.5808 52.6641 48.7622 51.9447C48.7126 51.8951 48.6878 51.8703 48.6382 51.8207L38.3685 43.4363C37.9468 43.0891 37.3515 43.0643 36.905 43.3619L36.8058 43.4363C28.1485 49.0921 16.5642 47.951 9.17206 40.7077C9.12244 40.6333 9.09764 40.5589 9.04803 40.5093C0.415591 31.9264 0.41559 17.9111 9.02322 9.30348C17.6308 0.695853 31.6462 0.695853 40.2538 9.30348C40.3034 9.3531 40.3778 9.40271 40.4522 9.42751C40.477 9.45232 40.5266 9.50193 40.5515 9.52674C40.9732 10.0477 41.7669 10.1221 42.2879 9.67557C42.8088 9.25387 42.8832 8.46009 42.4367 7.93916C42.3375 7.81513 42.1886 7.6663 42.0398 7.51746C32.4896 -2.00799 16.9363 -2.0824 7.31162 7.44305C7.28681 7.46785 7.2372 7.49266 7.21239 7.54227C3.24346 11.5112 0.762872 16.7949 0.192337 22.3762C-0.0557214 24.8071 0.0683079 27.2381 0.514813 29.5947C1.45744 34.4318 3.78919 38.8225 7.28681 42.3201C15.2991 50.3076 27.8757 51.7711 37.5003 45.9169L47.0258 53.706C47.0754 53.7556 47.1498 53.83 47.1994 53.8796C48.0676 54.6238 49.1095 54.9711 50.1513 54.9711C51.218 54.9711 52.2846 54.599 53.1528 53.8548L53.5745 53.4579C53.6489 53.3835 53.6986 53.3091 53.7482 53.2098C55.0629 51.4982 55.0133 49.1169 53.5993 47.4549C53.5745 47.4301 53.5249 47.3805 53.5001 47.3557Z" fill="#A61B3B"/>
<path d="M60.7439 1.09277C60.4958 0.745491 60.0741 0.547044 59.6276 0.596655L51.6649 1.44005C51.2184 1.48967 50.8463 1.76253 50.6727 2.15942C50.499 2.55632 50.5486 3.02763 50.7967 3.37491L52.5579 5.78108L24.5769 25.9482C24.2792 26.1467 24.1056 26.494 24.0808 26.8412L23.3366 36.3915L11.2314 24.5591C10.9833 24.311 10.636 24.187 10.2887 24.2118L6.74151 24.4599C6.07175 24.5095 5.55083 25.08 5.60044 25.7746C5.65005 26.4444 6.24539 26.9653 6.91515 26.9157L9.91666 26.7172L23.5103 39.9883C23.7335 40.2116 24.056 40.3356 24.3785 40.3356C24.5273 40.3356 24.6761 40.3108 24.8002 40.2612C25.2467 40.0876 25.5443 39.6907 25.594 39.2194L26.5118 27.635L54.0711 7.81516L55.5842 9.89885C55.8075 10.2213 56.1796 10.395 56.5765 10.395C56.6261 10.395 56.6757 10.395 56.7005 10.395C57.147 10.3454 57.5191 10.0725 57.6927 9.6756L60.9175 2.35787C61.0663 1.91137 61.0167 1.46486 60.7439 1.09277ZM56.2788 6.69889L54.0711 3.67258L57.792 3.27569L56.2788 6.69889Z" fill="#A61B3B"/>
</svg>
