<svg width="46" height="51" viewBox="0 0 46 51" fill="none" xmlns="http://www.w3.org/2000/svg">
<path d="M3 18H43M3 18V40.0005C3 42.8007 3 44.2002 3.54497 45.2697C4.02432 46.2105 4.78868 46.9762 5.7295 47.4555C6.798 48 8.19747 48 10.9923 48H35.0078C37.8025 48 39.2 48 40.2685 47.4555C41.2093 46.9762 41.9762 46.2105 42.4555 45.2697C43 44.2012 43 42.8038 43 40.009V18M3 18V16.0005C3 13.2002 3 11.7991 3.54497 10.7295C4.02432 9.78868 4.78868 9.02432 5.7295 8.54497C6.79905 8 8.20023 8 11.0005 8H13M43 18V15.9923C43 13.1975 43 11.798 42.4555 10.7295C41.9762 9.78868 41.2093 9.02432 40.2685 8.54497C39.199 8 37.8007 8 35.0005 8H33M13 8H33M13 8V3M33 8V3M30.5 28L20.5 38L15.5 33" stroke="#CC1818" stroke-width="5" stroke-linecap="round" stroke-linejoin="round"/>
</svg>
