<svg width="53" height="54" viewBox="0 0 53 54" fill="none" xmlns="http://www.w3.org/2000/svg">
<path fill-rule="evenodd" clip-rule="evenodd" d="M52.7548 45.4203C52.7832 45.5547 52.8 45.6907 52.805 45.828L52.8066 45.9154V48.5557C52.8066 51.4721 47.4871 53.8364 40.9251 53.8364C34.4288 53.8364 29.1502 51.5192 29.0452 48.643L29.0436 48.5557V45.9154L29.0452 45.828C29.0502 45.6911 29.067 45.5553 29.095 45.4211C29.8228 45.968 30.7086 46.4724 31.7351 46.9042C34.1311 47.9121 37.3618 48.5557 40.9251 48.5557C44.6297 48.5557 47.9744 47.8591 50.399 46.7815C51.3052 46.3787 52.0941 45.9173 52.7548 45.4203ZM23.763 0L47.526 13.2017L47.5261 22.9447C45.5797 22.445 43.328 22.1524 40.9251 22.1524C37.3064 22.1524 34.0309 22.8177 31.6146 23.8916C28.3059 25.3621 26.6215 27.611 26.4086 29.8869L26.4026 29.9559L26.4176 51.3318L23.763 52.8066L0 39.605V13.2017L23.763 0ZM52.7548 37.4993C52.7832 37.6337 52.8 37.7697 52.805 37.9071L52.8066 37.9944V40.6347C52.8066 43.5511 47.4871 45.9154 40.9251 45.9154C34.4288 45.9154 29.1502 43.5982 29.0452 40.722L29.0436 40.6347V37.9944L29.0452 37.9071C29.0502 37.7701 29.067 37.6343 29.095 37.5001C29.8228 38.047 30.7086 38.5514 31.7351 38.9832C34.1311 39.9911 37.3618 40.6347 40.9251 40.6347C44.6297 40.6347 47.9744 39.9381 50.399 38.8605C51.3052 38.4577 52.0941 37.9963 52.7548 37.4993ZM15.8419 24.6427L15.842 42.539L21.1227 45.4727V27.5763L15.8419 24.6427ZM5.28066 18.7755V36.6713L10.5613 39.6051V21.7091L5.28066 18.7755ZM40.9251 24.7927C47.4215 24.7927 52.7001 27.1099 52.805 29.9861L52.8066 30.0734V32.7137C52.8066 35.6301 47.4871 37.9944 40.9251 37.9944C34.4288 37.9944 29.1502 35.6772 29.0452 32.801L29.0436 32.7137V30.0734L29.0612 29.7836C29.3997 27.002 34.5819 24.7927 40.9251 24.7927ZM34.1582 11.6425L18.6158 20.3167L23.763 23.1762L39.3409 14.5218L34.1582 11.6425ZM23.763 5.8674L8.18503 14.5218L13.3413 17.3865L28.8835 8.71223L23.763 5.8674Z" fill="#A61B3B"/>
</svg>
