<svg width="29" height="29" viewBox="0 0 29 29" fill="none" xmlns="http://www.w3.org/2000/svg">
<path fill-rule="evenodd" clip-rule="evenodd" d="M24.1667 1.2085C26.1688 1.2085 27.7917 2.83147 27.7917 4.8335V24.1668C27.7917 26.1689 26.1688 27.7918 24.1667 27.7918H4.83337C2.83135 27.7918 1.20837 26.1689 1.20837 24.1668V4.8335C1.20837 2.83147 2.83135 1.2085 4.83337 1.2085H24.1667ZM24.1667 3.62516C24.8341 3.62516 25.375 4.16616 25.375 4.8335V24.1668C25.375 24.8342 24.8341 25.3752 24.1667 25.3752H18.125V16.9167H20.6338C21.1539 16.9167 21.6156 16.5839 21.7801 16.0905L22.3154 14.4846C22.511 13.8977 22.0742 13.2917 21.4557 13.2917H18.125V10.8751C18.125 10.2709 18.7292 9.66673 19.3334 9.66673H21.75C22.4174 9.66673 22.9584 9.12574 22.9584 8.4584V7.6295C22.9584 7.23918 22.7091 6.88923 22.3316 6.78963C20.7477 6.37164 19.3334 6.37164 19.3334 6.37164C16.3125 6.37164 14.5 8.4584 14.5 10.2709V13.2917H12.0834C11.416 13.2917 10.875 13.8327 10.875 14.5V15.7084C10.875 16.3757 11.416 16.9167 12.0834 16.9167H14.5V25.3752H4.83337C4.16604 25.3752 3.62504 24.8342 3.62504 24.1668V4.8335C3.62504 4.16616 4.16604 3.62516 4.83337 3.62516H24.1667Z" fill="#A61B3B"/>
</svg>
