<svg width="52" height="52" viewBox="0 0 52 52" fill="none" xmlns="http://www.w3.org/2000/svg">
<path d="M16.7812 46.1598C23.1002 46.1598 28.2227 41.0372 28.2227 34.7183C28.2227 28.3994 23.1002 23.2769 16.7812 23.2769C10.4623 23.2769 5.33978 28.3994 5.33978 34.7183C5.33978 41.0372 10.4623 46.1598 16.7812 46.1598Z" stroke="#CC1818" stroke-width="4" stroke-miterlimit="10"/>
<path d="M1 41.2285L6.32619 39.0586" stroke="#CC1818" stroke-width="4" stroke-miterlimit="10"/>
<path d="M27.2364 30.3784L32.5626 28.2085" stroke="#CC1818" stroke-width="4" stroke-miterlimit="10"/>
<path d="M10.2714 18.938L12.4414 24.2642" stroke="#CC1818" stroke-width="4" stroke-miterlimit="10"/>
<path d="M21.1211 45.1738L23.291 50.5" stroke="#CC1818" stroke-width="4" stroke-miterlimit="10"/>
<path d="M1 28.2085L6.32619 30.3784" stroke="#CC1818" stroke-width="4" stroke-miterlimit="10"/>
<path d="M27.2364 39.0586L32.5626 41.2285" stroke="#CC1818" stroke-width="4" stroke-miterlimit="10"/>
<path d="M23.291 18.938L21.1211 24.2642" stroke="#CC1818" stroke-width="4" stroke-miterlimit="10"/>
<path d="M12.4414 45.1738L10.2714 50.5" stroke="#CC1818" stroke-width="4" stroke-miterlimit="10"/>
<path d="M37.6915 23.0797C42.812 23.0797 46.963 18.9287 46.963 13.8081C46.963 8.68762 42.812 4.53662 37.6915 4.53662C32.571 4.53662 28.42 8.68762 28.42 13.8081C28.42 18.9287 32.571 23.0797 37.6915 23.0797Z" stroke="#CC1818" stroke-width="4" stroke-miterlimit="10"/>
<path d="M27.8282 23.6714L31.1817 20.3179" stroke="#CC1818" stroke-width="4" stroke-miterlimit="10"/>
<path d="M44.2013 7.29884L47.3576 4.14258" stroke="#CC1818" stroke-width="4" stroke-miterlimit="10"/>
<path d="M27.8282 4.14258L31.1817 7.29884" stroke="#CC1818" stroke-width="4" stroke-miterlimit="10"/>
<path d="M44.2013 20.3179L47.3576 23.6714" stroke="#CC1818" stroke-width="4" stroke-miterlimit="10"/>
<path d="M23.8829 13.8086H28.42" stroke="#CC1818" stroke-width="4" stroke-miterlimit="10"/>
<path d="M46.963 13.8086H51.5001" stroke="#CC1818" stroke-width="4" stroke-miterlimit="10"/>
<path d="M37.6915 0V4.53713" stroke="#CC1818" stroke-width="4" stroke-miterlimit="10"/>
<path d="M37.6915 23.0806V27.6177" stroke="#CC1818" stroke-width="4" stroke-miterlimit="10"/>
</svg>
