<svg width="29" height="29" viewBox="0 0 29 29" fill="none" xmlns="http://www.w3.org/2000/svg">
<path fill-rule="evenodd" clip-rule="evenodd" d="M14.5 21.75C18.5041 21.75 21.75 18.5041 21.75 14.5C21.75 10.4959 18.5041 7.25 14.5 7.25C10.4959 7.25 7.25 10.4959 7.25 14.5C7.25 18.5041 10.4959 21.75 14.5 21.75ZM14.5 19.3333C17.1693 19.3333 19.3333 17.1693 19.3333 14.5C19.3333 11.8306 17.1693 9.66667 14.5 9.66667C11.8306 9.66667 9.66667 11.8306 9.66667 14.5C9.66667 17.1693 11.8306 19.3333 14.5 19.3333Z" fill="#A61B3B"/>
<path d="M21.75 6.0415C21.0826 6.0415 20.5416 6.5825 20.5416 7.24984C20.5416 7.91718 21.0826 8.45817 21.75 8.45817C22.4173 8.45817 22.9583 7.91718 22.9583 7.24984C22.9583 6.5825 22.4173 6.0415 21.75 6.0415Z" fill="#A61B3B"/>
<path fill-rule="evenodd" clip-rule="evenodd" d="M1.99858 5.16707C1.20837 6.71793 1.20837 8.74812 1.20837 12.8085V16.1918C1.20837 20.2522 1.20837 22.2824 1.99858 23.8332C2.69366 25.1974 3.80276 26.3065 5.16695 27.0016C6.71781 27.7918 8.748 27.7918 12.8084 27.7918H16.1917C20.2521 27.7918 22.2823 27.7918 23.8331 27.0016C25.1973 26.3065 26.3064 25.1974 27.0015 23.8332C27.7917 22.2824 27.7917 20.2522 27.7917 16.1918V12.8085C27.7917 8.74812 27.7917 6.71793 27.0015 5.16707C26.3064 3.80288 25.1973 2.69378 23.8331 1.9987C22.2823 1.2085 20.2521 1.2085 16.1917 1.2085H12.8084C8.748 1.2085 6.71781 1.2085 5.16695 1.9987C3.80276 2.69378 2.69366 3.80288 1.99858 5.16707ZM16.1917 3.62516H12.8084C10.7383 3.62516 9.33109 3.62705 8.24339 3.71591C7.18387 3.80247 6.64206 3.95938 6.26409 4.15196C5.35464 4.61536 4.61523 5.35476 4.15184 6.26421C3.95925 6.64218 3.80235 7.18399 3.71579 8.24351C3.62693 9.33121 3.62504 10.7384 3.62504 12.8085V16.1918C3.62504 18.2619 3.62693 19.6691 3.71579 20.7568C3.80235 21.8164 3.95925 22.3582 4.15184 22.7362C4.61523 23.6456 5.35464 24.3849 6.26409 24.8483C6.64206 25.0409 7.18387 25.1979 8.24339 25.2844C9.33109 25.3732 10.7383 25.3752 12.8084 25.3752H16.1917C18.2618 25.3752 19.6689 25.3732 20.7567 25.2844C21.8163 25.1979 22.3581 25.0409 22.736 24.8483C23.6454 24.3849 24.3848 23.6456 24.8482 22.7362C25.0408 22.3582 25.1978 21.8164 25.2843 20.7568C25.3731 19.6691 25.375 18.2619 25.375 16.1918V12.8085C25.375 10.7384 25.3731 9.33121 25.2843 8.24351C25.1978 7.18399 25.0408 6.64218 24.8482 6.26421C24.3848 5.35476 23.6454 4.61536 22.736 4.15196C22.3581 3.95938 21.8163 3.80247 20.7567 3.71591C19.6689 3.62705 18.2618 3.62516 16.1917 3.62516Z" fill="#A61B3B"/>
</svg>
