<svg width="56" height="48" viewBox="0 0 56 48" fill="none" xmlns="http://www.w3.org/2000/svg">
<path fill-rule="evenodd" clip-rule="evenodd" d="M23.2147 1.14092e-06H30.3343C33.1507 -2.4805e-05 35.4071 -5.07058e-05 37.2567 0.182246C39.1721 0.371028 40.7987 0.765692 42.3303 1.63989C43.8584 2.51224 45.0375 3.71712 46.2 5.27907C47.3268 6.79275 48.5197 8.75868 50.0148 11.2228L51.8904 14.3136C53.1393 16.3715 54.1528 18.0415 54.8422 19.494C55.5611 21.0077 56 22.4264 56 24C56 25.5736 55.5611 26.9923 54.8422 28.506C54.1528 29.9585 53.1393 31.6284 51.8904 33.6864L50.0148 36.7773C48.5197 39.2414 47.3268 41.2074 46.2 42.721C45.0375 44.283 43.8584 45.4877 42.3303 46.3602C40.7987 47.2343 39.1721 47.629 37.2567 47.8179C35.4071 48 33.1507 48 30.3343 48H23.2147C18.2963 48 14.3995 48 11.3496 47.5779C8.20528 47.1422 5.67363 46.225 3.68516 44.1771C1.70553 42.1383 0.826925 39.5577 0.408279 36.3505C-5.17756e-05 33.2222 -2.56305e-05 29.2198 4.1606e-07 24.1427V23.8573C-2.56305e-05 18.7802 -5.17756e-05 14.7777 0.408279 11.6494C0.826925 8.44242 1.70553 5.86176 3.68516 3.82285C5.67363 1.77483 8.20528 0.857644 11.3496 0.422245C14.3995 -7.67063e-05 18.2964 -5.0751e-05 23.2147 1.14092e-06ZM11.8875 4.27709C9.20075 4.64913 7.6409 5.34679 6.49353 6.52855C5.3373 7.71936 4.64797 9.35268 4.28265 12.1513C3.91086 14.9994 3.90698 18.7485 3.90698 24C3.90698 29.2515 3.91086 33.0006 4.28265 35.8487C4.64797 38.6473 5.3373 40.2806 6.49353 41.4715C7.6409 42.6533 9.20075 43.351 11.8875 43.7228C14.6373 44.1037 18.2623 44.1081 23.3663 44.1081H30.2348C33.1736 44.1081 35.237 44.106 36.872 43.9446C38.4629 43.7879 39.4975 43.4914 40.3877 42.9833C41.2811 42.4733 42.0813 41.7203 43.0617 40.403C44.0655 39.0544 45.1647 37.2467 46.7209 34.6819L48.4942 31.7599C49.8082 29.5945 50.7162 28.0938 51.3103 26.8421C51.8852 25.6312 52.093 24.7984 52.093 24C52.093 23.2016 51.8852 22.3688 51.3103 21.1579C50.7162 19.9062 49.8082 18.4055 48.4942 16.2402L46.7209 13.3181C45.1647 10.7534 44.0655 8.9457 43.0617 7.59692C42.0813 6.2797 41.2811 5.52662 40.3877 5.01665C39.4975 4.50852 38.4629 4.21204 36.872 4.05522C35.237 3.89407 33.1736 3.89189 30.2348 3.89189H23.3663C18.2623 3.89189 14.6373 3.8963 11.8875 4.27709ZM14.9767 10.3657C16.0556 10.3657 16.9302 11.2369 16.9302 12.3117V35.6757C16.9302 36.7504 16.0556 37.6216 14.9767 37.6216C13.8979 37.6216 13.0233 36.7504 13.0233 35.6757V12.3117C13.0233 11.2369 13.8979 10.3657 14.9767 10.3657Z" fill="#A61B3B"/>
</svg>
