<svg width="29" height="29" viewBox="0 0 29 29" fill="none" xmlns="http://www.w3.org/2000/svg">
<path d="M7.85413 9.6665C8.85515 9.6665 9.66663 8.85502 9.66663 7.854C9.66663 6.85298 8.85515 6.0415 7.85413 6.0415C6.85311 6.0415 6.04163 6.85298 6.04163 7.854C6.04163 8.85502 6.85311 9.6665 7.85413 9.6665Z" fill="#A61B3B"/>
<path d="M6.04163 12.0833C6.04163 11.416 6.58262 10.875 7.24996 10.875H8.45829C9.12563 10.875 9.66663 11.416 9.66663 12.0833V21.75C9.66663 22.4174 9.12563 22.9583 8.45829 22.9583H7.24996C6.58262 22.9583 6.04163 22.4174 6.04163 21.75V12.0833Z" fill="#A61B3B"/>
<path d="M13.2917 22.9583H14.5C15.1674 22.9583 15.7084 22.4174 15.7084 21.75V16.3125C15.7084 14.5 19.3334 13.2917 19.3334 15.7083V21.7505C19.3334 22.4178 19.8743 22.9583 20.5417 22.9583H21.75C22.4174 22.9583 22.9584 22.4174 22.9584 21.75V14.5C22.9584 12.0833 21.1459 10.875 18.7292 10.875C16.3125 10.875 15.7084 12.6875 15.7084 12.6875V12.0833C15.7084 11.416 15.1674 10.875 14.5 10.875H13.2917C12.6243 10.875 12.0834 11.416 12.0834 12.0833V21.75C12.0834 22.4174 12.6243 22.9583 13.2917 22.9583Z" fill="#A61B3B"/>
<path fill-rule="evenodd" clip-rule="evenodd" d="M24.1667 1.2085C26.1688 1.2085 27.7917 2.83147 27.7917 4.8335V24.1668C27.7917 26.1689 26.1688 27.7918 24.1667 27.7918H4.83337C2.83135 27.7918 1.20837 26.1689 1.20837 24.1668V4.8335C1.20837 2.83147 2.83135 1.2085 4.83337 1.2085H24.1667ZM24.1667 3.62516C24.8341 3.62516 25.375 4.16616 25.375 4.8335V24.1668C25.375 24.8342 24.8341 25.3752 24.1667 25.3752H4.83337C4.16604 25.3752 3.62504 24.8342 3.62504 24.1668V4.8335C3.62504 4.16616 4.16604 3.62516 4.83337 3.62516H24.1667Z" fill="#A61B3B"/>
</svg>
