<svg width="60" height="60" viewBox="0 0 60 60" fill="none" xmlns="http://www.w3.org/2000/svg">
<path fill-rule="evenodd" clip-rule="evenodd" d="M25 2.5C24.337 2.5 23.7011 2.7634 23.2322 3.23222L8.23223 18.2322C7.7634 18.7011 7.5 19.3369 7.5 20V50C7.5 54.1422 10.8579 57.5 15 57.5H20C21.3807 57.5 22.5 56.3807 22.5 55C22.5 53.6192 21.3807 52.5 20 52.5H15C13.6193 52.5 12.5 51.3807 12.5 50V22.5H25C26.3808 22.5 27.5 21.3807 27.5 20V7.5H45C46.3807 7.5 47.5 8.6193 47.5 10V17.5C47.5 18.8807 48.6193 20 50 20C51.3807 20 52.5 18.8807 52.5 17.5V10C52.5 5.85787 49.1423 2.5 45 2.5H25ZM22.5 17.5H16.0355L22.5 11.0355V17.5ZM30 42.5C30 35.5965 35.5965 30 42.5 30C49.4035 30 55 35.5965 55 42.5C55 49.4035 49.4035 55 42.5 55C35.5965 55 30 49.4035 30 42.5ZM42.5 25C32.835 25 25 32.835 25 42.5C25 52.165 32.835 60 42.5 60C52.165 60 60 52.165 60 42.5C60 32.835 52.165 25 42.5 25ZM41.3868 35.4197C40.6195 34.9085 39.6333 34.8607 38.8202 35.2957C38.0075 35.7307 37.5 36.578 37.5 37.5V47.5C37.5 48.422 38.0075 49.2692 38.8202 49.7042C39.6333 50.1392 40.6195 50.0915 41.3868 49.5802L48.8868 44.5802C49.5823 44.1165 50 43.336 50 42.5C50 41.664 49.5823 40.8835 48.8868 40.4197L41.3868 35.4197Z" fill="#A61B3B"/>
</svg>
