<svg width="53" height="57" viewBox="0 0 53 57" fill="none" xmlns="http://www.w3.org/2000/svg">
<path fill-rule="evenodd" clip-rule="evenodd" d="M30.075 0.91681C28.89 0.314138 27.5794 0 26.25 0C24.9206 0 23.61 0.314138 22.425 0.91681L2.5575 11.0268C1.78746 11.4196 1.14104 12.0177 0.689694 12.7549C0.238346 13.4922 -0.0003473 14.3399 3.79277e-07 15.2043V40.3931C3.79277e-07 42.8606 1.3875 45.1181 3.585 46.2431L22.4212 55.8318C23.6072 56.4357 24.9192 56.7505 26.25 56.7505C27.5808 56.7505 28.8928 56.4357 30.0788 55.8318L48.915 46.2431C49.9941 45.6936 50.9002 44.8564 51.5329 43.8239C52.1656 42.7914 52.5003 41.604 52.5 40.3931V15.2043C52.5 13.4418 51.51 11.8293 49.9388 11.0268L30.075 0.91681ZM24.975 5.93056C25.37 5.72967 25.8069 5.62496 26.25 5.62496C26.6931 5.62496 27.13 5.72967 27.525 5.93056L44.16 14.3981L38.655 17.1506L20.6362 8.13931L24.975 5.92681V5.93056ZM14.4 11.3118L8.33625 14.3981L26.25 23.3531L32.3662 20.2968L14.4 11.3118ZM5.625 19.3293V40.3931C5.625 40.7456 5.82375 41.0681 6.13875 41.2293L23.4375 50.0343V28.2393L5.625 19.3293ZM46.3612 41.2293L29.0625 50.0343V28.2393L46.875 19.3331V40.3968C46.875 40.5701 46.827 40.7399 46.7363 40.8875C46.6456 41.0351 46.5158 41.151 46.3612 41.2293Z" fill="#CC1818"/>
</svg>
