<svg width="39" height="51" viewBox="0 0 39 51" fill="none" xmlns="http://www.w3.org/2000/svg">
<path d="M19.1898 0C23.4588 0 26.9196 3.4608 26.9196 7.7298C26.9196 11.9988 23.4588 15.4596 19.1898 15.4596C14.9208 15.4596 11.46 11.9988 11.46 7.7298C11.46 3.4608 14.9208 0 19.1898 0ZM6.73508 28.9712C6.73508 28.391 7.1081 27.9972 7.70908 27.9972C8.31006 27.9972 8.68307 28.3702 8.68307 28.9712V50.5649H29.9245V28.9712C29.9245 28.391 30.2975 27.9972 30.8985 27.9972C31.4787 27.9972 31.8725 28.3702 31.8725 28.9712V50.5649H38.6283V27.0232C38.6283 21.6973 34.2764 17.3661 28.9712 17.3661H27.0232L21.345 26.1943L20.6612 19.5835L21.5937 17.3454H17.4076L18.3401 19.5835L17.6148 26.2357L11.9366 17.3661H9.65707C4.33118 17.3661 0 21.718 0 27.0232V50.5649H6.75581V28.9712H6.73508Z" fill="#A61B3B"/>
</svg>
