<svg width="53" height="56" viewBox="0 0 53 56" fill="none" xmlns="http://www.w3.org/2000/svg">
<path d="M23 23C28.5228 23 33 18.5228 33 13C33 7.47715 28.5228 3 23 3C17.4772 3 13 7.47715 13 13C13 18.5228 17.4772 23 23 23Z" stroke="#CC1818" stroke-width="5"/>
<path d="M45.5 3C45.5 3 50.5 6 50.5 13C50.5 20 45.5 23 45.5 23" stroke="#CC1818" stroke-width="5" stroke-linecap="round"/>
<path d="M40.5 8C40.5 8 43 9.5 43 13C43 16.5 40.5 18 40.5 18" stroke="#CC1818" stroke-width="5" stroke-linecap="round"/>
<path d="M42.9937 43C43 42.5895 43 42.1725 43 41.75C43 35.5367 34.0458 30.5 23 30.5C11.9543 30.5 3 35.5367 3 41.75C3 47.9633 3 53 23 53C28.5775 53 32.5995 52.6083 35.5 51.9085" stroke="#CC1818" stroke-width="5" stroke-linecap="round"/>
</svg>
