<svg width="54" height="54" viewBox="0 0 54 54" fill="none" xmlns="http://www.w3.org/2000/svg">
<path opacity="0.5" d="M27 52C40.8071 52 52 40.8071 52 27C52 13.1929 40.8071 2 27 2C13.1929 2 2 13.1929 2 27C2 40.8071 13.1929 52 27 52Z" stroke="#DCE4ED" stroke-width="3.75"/>
<path d="M31.719 21.837C34.4062 24.0292 35.75 25.1252 35.75 27C35.75 28.8747 34.4062 29.9707 31.719 32.163C30.9772 32.7682 30.2415 33.338 29.5653 33.8127C28.972 34.2292 28.3003 34.66 27.6048 35.083C24.9238 36.7132 23.5833 37.5285 22.381 36.626C21.1788 35.7235 21.0695 33.834 20.8509 30.0555C20.7891 28.9867 20.75 27.9392 20.75 27C20.75 26.0607 20.7891 25.0132 20.8509 23.9445C21.0695 20.1659 21.1788 18.2765 22.381 17.374C23.5833 16.4715 24.9238 17.2866 27.6048 18.917C28.3003 19.3399 28.972 19.7708 29.5653 20.1873C30.2415 20.6621 30.9772 21.2318 31.719 21.837Z" stroke="#DCE4ED" stroke-width="3.75"/>
</svg>
