<svg width="60" height="60" viewBox="0 0 60 60" fill="none" xmlns="http://www.w3.org/2000/svg">
<path d="M53.9392 1H42.2044V4.9116H18.7348V1H7V59.674H18.7348V55.7624H42.2044V59.674H53.9392V1ZM14.8232 4.9116V8.8232H10.9116V4.9116H14.8232ZM50.0276 4.9116V8.8232H46.116V4.9116H50.0276ZM42.2044 8.8232V28.3812H18.7348V8.8232H42.2044ZM14.8232 12.7348V16.6464H10.9116V12.7348H14.8232ZM50.0276 12.7348V16.6464H46.116V12.7348H50.0276ZM14.8232 20.558V24.4696H10.9116V20.558H14.8232ZM50.0276 20.558V24.4696H46.116V20.558H50.0276ZM14.8232 28.3812V32.2928H10.9116V28.3812H14.8232ZM50.0276 28.3812V32.2928H46.116V28.3812H50.0276ZM42.2044 32.2928V51.8508H18.7348V32.2928H42.2044ZM14.8232 36.2044V40.116H10.9116V36.2044H14.8232ZM50.0276 36.2044V40.116H46.116V36.2044H50.0276ZM14.8232 44.0276V47.9392H10.9116V44.0276H14.8232ZM50.0276 44.0276V47.9392H46.116V44.0276H50.0276ZM14.8232 51.8508V55.7624H10.9116V51.8508H14.8232ZM50.0276 51.8508V55.7624H46.116V51.8508H50.0276Z" fill="#A61B3B"/>
</svg>
