<svg width="60" height="60" viewBox="0 0 60 60" fill="none" xmlns="http://www.w3.org/2000/svg">
<g clip-path="url(#clip0_2_320)">
<path d="M30 37.5C34.1421 37.5 37.5 34.1421 37.5 30C37.5 25.8579 34.1421 22.5 30 22.5C25.8579 22.5 22.5 25.8579 22.5 30C22.5 34.1421 25.8579 37.5 30 37.5Z" fill="#CC1818"/>
<path fill-rule="evenodd" clip-rule="evenodd" d="M7.8111 26.25C9.3918 16.8281 16.8281 9.3918 26.25 7.8111V0H33.75V7.8111C43.1719 9.3918 50.6081 16.8281 52.1888 26.25H60V33.75H52.1888C50.6081 43.1719 43.1719 50.6081 33.75 52.1888V60H26.25V52.1888C16.8281 50.6081 9.3918 43.1719 7.8111 33.75H0V26.25H7.8111ZM15 30C15 21.7157 21.7157 15 30 15C38.2841 15 45 21.7157 45 30C45 38.2841 38.2841 45 30 45C21.7157 45 15 38.2841 15 30Z" fill="#CC1818"/>
</g>
<defs>
<clipPath id="clip0_2_320">
<rect width="60" height="60" fill="white"/>
</clipPath>
</defs>
</svg>
